<svg xmlns="http://www.w3.org/2000/svg" xmlns:xlink="http://www.w3.org/1999/xlink" width="378" zoomAndPan="magnify" viewBox="0 0 283.5 283.500005" height="378" preserveAspectRatio="xMidYMid meet" version="1.0"><defs><clipPath id="9af5b8217b"><path d="M 1 0 L 282.605469 0 L 282.605469 282 L 1 282 Z M 1 0 " clip-rule="nonzero"/></clipPath></defs><g clip-path="url(#9af5b8217b)"><path fill="#076e6d" d="M 141.378906 0.257812 C 63.011719 0.523438 0.375 64.242188 1.398438 142.605469 C 1.492188 150.496094 2.246094 158.320312 3.664062 166.078125 C 5.082031 173.839844 7.140625 181.425781 9.839844 188.839844 C 12.539062 196.25 15.84375 203.382812 19.75 210.238281 C 23.660156 217.089844 28.113281 223.566406 33.117188 229.664062 C 33.90625 230.632812 34.535156 231.691406 35.003906 232.847656 C 35.476562 234.003906 35.765625 235.203125 35.871094 236.449219 C 35.980469 237.691406 35.90625 238.921875 35.644531 240.144531 C 35.382812 241.363281 34.945312 242.515625 34.335938 243.605469 L 22.234375 265.289062 C 18.878906 271.304688 24.347656 278.410156 31.019531 276.710938 L 72.003906 266.277344 C 73.433594 265.914062 74.882812 265.808594 76.347656 265.957031 C 77.816406 266.109375 79.210938 266.507812 80.539062 267.152344 C 89.601562 271.554688 99.03125 274.9375 108.824219 277.304688 C 118.621094 279.667969 128.554688 280.957031 138.628906 281.175781 C 217.421875 282.957031 282.09375 219.996094 282.339844 141.183594 C 282.585938 63.230469 219.335938 -0.00390625 141.378906 0.257812 Z M 141.863281 263.902344 C 139.847656 263.902344 137.835938 263.851562 135.820312 263.753906 C 133.808594 263.652344 131.796875 263.503906 129.792969 263.308594 C 127.785156 263.109375 125.785156 262.863281 123.792969 262.566406 C 121.796875 262.273438 119.8125 261.929688 117.835938 261.535156 C 115.859375 261.140625 113.894531 260.699219 111.9375 260.210938 C 109.980469 259.71875 108.039062 259.183594 106.109375 258.597656 C 104.183594 258.011719 102.269531 257.378906 100.371094 256.703125 C 98.472656 256.023438 96.59375 255.296875 94.730469 254.527344 C 92.867188 253.753906 91.027344 252.9375 89.203125 252.078125 C 87.382812 251.214844 85.582031 250.308594 83.804688 249.359375 C 82.027344 248.40625 80.273438 247.414062 78.542969 246.378906 C 76.816406 245.34375 75.113281 244.265625 73.4375 243.144531 C 71.761719 242.023438 70.113281 240.863281 68.492188 239.664062 C 66.875 238.460938 65.285156 237.222656 63.726562 235.945312 C 62.171875 234.664062 60.644531 233.347656 59.152344 231.996094 C 57.65625 230.640625 56.199219 229.253906 54.773438 227.828125 C 53.347656 226.402344 51.957031 224.941406 50.605469 223.449219 C 49.25 221.957031 47.933594 220.429688 46.65625 218.871094 C 45.375 217.3125 44.136719 215.722656 42.9375 214.105469 C 41.734375 212.484375 40.574219 210.839844 39.453125 209.164062 C 38.335938 207.488281 37.257812 205.785156 36.21875 204.054688 C 35.183594 202.328125 34.191406 200.574219 33.242188 198.796875 C 32.289062 197.015625 31.382812 195.21875 30.523438 193.394531 C 29.660156 191.574219 28.84375 189.730469 28.074219 187.867188 C 27.300781 186.007812 26.578125 184.125 25.898438 182.226562 C 25.21875 180.332031 24.585938 178.417969 24 176.488281 C 23.414062 174.558594 22.878906 172.617188 22.386719 170.660156 C 21.898438 168.707031 21.457031 166.738281 21.0625 164.761719 C 20.671875 162.785156 20.328125 160.800781 20.03125 158.804688 C 19.734375 156.8125 19.488281 154.8125 19.289062 152.804688 C 19.09375 150.800781 18.945312 148.789062 18.847656 146.777344 C 18.746094 144.765625 18.699219 142.75 18.699219 140.734375 C 18.699219 72.710938 73.84375 17.566406 141.863281 17.566406 C 209.625 17.566406 264.601562 72.285156 265.027344 139.941406 C 265.457031 207.828125 209.753906 263.902344 141.863281 263.902344 Z M 141.863281 263.902344 " fill-opacity="1" fill-rule="nonzero"/></g><path fill="#ffffff" d="M 265.03125 140.734375 C 265.03125 142.75 264.980469 144.765625 264.882812 146.777344 C 264.785156 148.789062 264.636719 150.800781 264.4375 152.804688 C 264.242188 154.8125 263.996094 156.8125 263.699219 158.804688 C 263.402344 160.800781 263.058594 162.785156 262.664062 164.761719 C 262.273438 166.738281 261.832031 168.707031 261.339844 170.660156 C 260.851562 172.617188 260.3125 174.558594 259.726562 176.488281 C 259.144531 178.417969 258.511719 180.328125 257.832031 182.226562 C 257.152344 184.125 256.425781 186.003906 255.65625 187.867188 C 254.882812 189.730469 254.066406 191.570312 253.207031 193.394531 C 252.34375 195.214844 251.4375 197.015625 250.488281 198.792969 C 249.539062 200.570312 248.542969 202.324219 247.507812 204.054688 C 246.472656 205.785156 245.394531 207.484375 244.273438 209.160156 C 243.152344 210.835938 241.992188 212.484375 240.792969 214.105469 C 239.59375 215.722656 238.351562 217.3125 237.074219 218.871094 C 235.796875 220.429688 234.480469 221.953125 233.125 223.449219 C 231.773438 224.941406 230.382812 226.402344 228.957031 227.824219 C 227.53125 229.25 226.070312 230.640625 224.578125 231.996094 C 223.085938 233.347656 221.558594 234.664062 220 235.941406 C 218.441406 237.222656 216.855469 238.460938 215.234375 239.664062 C 213.617188 240.863281 211.96875 242.023438 210.292969 243.144531 C 208.617188 244.261719 206.914062 245.339844 205.183594 246.378906 C 203.457031 247.414062 201.703125 248.40625 199.925781 249.355469 C 198.148438 250.308594 196.347656 251.214844 194.523438 252.074219 C 192.703125 252.9375 190.859375 253.753906 189 254.523438 C 187.136719 255.296875 185.257812 256.023438 183.359375 256.699219 C 181.460938 257.378906 179.546875 258.011719 177.617188 258.597656 C 175.6875 259.183594 173.746094 259.71875 171.792969 260.210938 C 169.835938 260.699219 167.871094 261.140625 165.894531 261.535156 C 163.917969 261.925781 161.929688 262.273438 159.9375 262.566406 C 157.941406 262.863281 155.941406 263.109375 153.9375 263.308594 C 151.929688 263.503906 149.921875 263.652344 147.90625 263.753906 C 145.894531 263.851562 143.878906 263.902344 141.863281 263.902344 C 139.847656 263.902344 137.835938 263.851562 135.820312 263.753906 C 133.808594 263.652344 131.796875 263.503906 129.792969 263.308594 C 127.785156 263.109375 125.785156 262.863281 123.792969 262.566406 C 121.796875 262.273438 119.8125 261.925781 117.835938 261.535156 C 115.859375 261.140625 113.894531 260.699219 111.9375 260.210938 C 109.980469 259.71875 108.039062 259.183594 106.109375 258.597656 C 104.183594 258.011719 102.269531 257.378906 100.371094 256.699219 C 98.472656 256.023438 96.59375 255.296875 94.730469 254.523438 C 92.867188 253.753906 91.027344 252.9375 89.203125 252.074219 C 87.382812 251.214844 85.582031 250.308594 83.804688 249.355469 C 82.027344 248.40625 80.273438 247.414062 78.542969 246.378906 C 76.816406 245.339844 75.113281 244.261719 73.4375 243.144531 C 71.761719 242.023438 70.113281 240.863281 68.492188 239.664062 C 66.875 238.460938 65.285156 237.222656 63.726562 235.941406 C 62.167969 234.664062 60.644531 233.347656 59.152344 231.996094 C 57.65625 230.640625 56.199219 229.25 54.773438 227.824219 C 53.347656 226.402344 51.957031 224.941406 50.605469 223.449219 C 49.25 221.953125 47.933594 220.429688 46.65625 218.871094 C 45.375 217.3125 44.136719 215.722656 42.9375 214.105469 C 41.734375 212.484375 40.574219 210.835938 39.453125 209.160156 C 38.335938 207.484375 37.257812 205.785156 36.21875 204.054688 C 35.183594 202.324219 34.191406 200.570312 33.242188 198.792969 C 32.289062 197.015625 31.382812 195.214844 30.523438 193.394531 C 29.660156 191.570312 28.84375 189.730469 28.074219 187.867188 C 27.300781 186.003906 26.578125 184.125 25.898438 182.226562 C 25.21875 180.328125 24.585938 178.417969 24 176.488281 C 23.414062 174.558594 22.878906 172.617188 22.386719 170.660156 C 21.898438 168.707031 21.457031 166.738281 21.0625 164.761719 C 20.671875 162.785156 20.328125 160.800781 20.03125 158.804688 C 19.734375 156.8125 19.488281 154.8125 19.289062 152.804688 C 19.09375 150.800781 18.945312 148.789062 18.847656 146.777344 C 18.746094 144.765625 18.699219 142.75 18.699219 140.734375 C 18.699219 138.71875 18.746094 136.703125 18.847656 134.691406 C 18.945312 132.675781 19.09375 130.667969 19.289062 128.660156 C 19.488281 126.65625 19.734375 124.65625 20.03125 122.660156 C 20.328125 120.667969 20.671875 118.683594 21.0625 116.703125 C 21.457031 114.726562 21.898438 112.761719 22.386719 110.804688 C 22.878906 108.851562 23.414062 106.910156 24 104.980469 C 24.585938 103.050781 25.21875 101.136719 25.898438 99.238281 C 26.578125 97.34375 27.300781 95.460938 28.074219 93.601562 C 28.84375 91.738281 29.660156 89.894531 30.523438 88.074219 C 31.382812 86.25 32.289062 84.449219 33.242188 82.671875 C 34.191406 80.894531 35.183594 79.140625 36.21875 77.414062 C 37.257812 75.683594 38.335938 73.980469 39.453125 72.304688 C 40.574219 70.628906 41.734375 68.980469 42.9375 67.363281 C 44.136719 65.746094 45.375 64.15625 46.65625 62.597656 C 47.933594 61.039062 49.25 59.511719 50.605469 58.019531 C 51.957031 56.527344 53.347656 55.066406 54.773438 53.640625 C 56.199219 52.214844 57.65625 50.828125 59.152344 49.472656 C 60.644531 48.121094 62.167969 46.804688 63.726562 45.523438 C 65.285156 44.246094 66.875 43.003906 68.492188 41.804688 C 70.113281 40.605469 71.761719 39.445312 73.4375 38.324219 C 75.113281 37.203125 76.816406 36.125 78.542969 35.089844 C 80.273438 34.054688 82.027344 33.058594 83.804688 32.109375 C 85.582031 31.160156 87.382812 30.253906 89.203125 29.390625 C 91.027344 28.53125 92.867188 27.714844 94.730469 26.941406 C 96.59375 26.171875 98.472656 25.445312 100.371094 24.765625 C 102.269531 24.085938 104.183594 23.457031 106.109375 22.871094 C 108.039062 22.285156 109.980469 21.746094 111.9375 21.257812 C 113.894531 20.769531 115.859375 20.328125 117.835938 19.933594 C 119.8125 19.539062 121.796875 19.195312 123.792969 18.898438 C 125.785156 18.605469 127.785156 18.355469 129.792969 18.160156 C 131.796875 17.960938 133.808594 17.8125 135.820312 17.714844 C 137.835938 17.617188 139.847656 17.566406 141.863281 17.566406 C 143.878906 17.566406 145.894531 17.617188 147.90625 17.714844 C 149.921875 17.8125 151.929688 17.960938 153.9375 18.160156 C 155.941406 18.355469 157.941406 18.605469 159.9375 18.898438 C 161.929688 19.195312 163.917969 19.539062 165.894531 19.933594 C 167.871094 20.328125 169.835938 20.769531 171.792969 21.257812 C 173.746094 21.746094 175.6875 22.285156 177.617188 22.871094 C 179.546875 23.457031 181.460938 24.085938 183.359375 24.765625 C 185.257812 25.445312 187.136719 26.171875 189 26.941406 C 190.859375 27.714844 192.703125 28.53125 194.523438 29.390625 C 196.347656 30.253906 198.148438 31.160156 199.925781 32.109375 C 201.703125 33.058594 203.457031 34.054688 205.183594 35.089844 C 206.914062 36.125 208.617188 37.203125 210.292969 38.324219 C 211.96875 39.445312 213.617188 40.605469 215.234375 41.804688 C 216.855469 43.003906 218.441406 44.246094 220 45.523438 C 221.558594 46.804688 223.085938 48.121094 224.578125 49.472656 C 226.070312 50.828125 227.53125 52.214844 228.957031 53.640625 C 230.382812 55.066406 231.773438 56.527344 233.125 58.019531 C 234.480469 59.511719 235.796875 61.039062 237.074219 62.597656 C 238.351562 64.15625 239.59375 65.746094 240.792969 67.363281 C 241.992188 68.980469 243.152344 70.628906 244.273438 72.304688 C 245.394531 73.980469 246.472656 75.683594 247.507812 77.414062 C 248.542969 79.140625 249.539062 80.894531 250.488281 82.671875 C 251.4375 84.449219 252.34375 86.25 253.207031 88.074219 C 254.066406 89.894531 254.882812 91.738281 255.65625 93.601562 C 256.425781 95.460938 257.152344 97.34375 257.832031 99.238281 C 258.511719 101.136719 259.144531 103.050781 259.726562 104.980469 C 260.3125 106.910156 260.851562 108.851562 261.339844 110.804688 C 261.832031 112.761719 262.273438 114.726562 262.664062 116.703125 C 263.058594 118.683594 263.402344 120.667969 263.699219 122.660156 C 263.996094 124.65625 264.242188 126.65625 264.4375 128.660156 C 264.636719 130.667969 264.785156 132.675781 264.882812 134.691406 C 264.980469 136.703125 265.03125 138.71875 265.03125 140.734375 Z M 265.03125 140.734375 " fill-opacity="1" fill-rule="nonzero"/><path fill="#076e6d" d="M 119.851562 80.855469 L 119.90625 80.96875 L 127.253906 95.535156 C 127.648438 96.320312 127.980469 97.128906 128.242188 97.964844 C 128.507812 98.804688 128.703125 99.65625 128.828125 100.523438 C 128.957031 101.394531 129.011719 102.265625 129 103.144531 C 128.984375 104.019531 128.898438 104.890625 128.746094 105.753906 C 128.589844 106.617188 128.367188 107.464844 128.078125 108.292969 C 127.785156 109.121094 127.429688 109.917969 127.011719 110.691406 C 126.589844 111.460938 126.113281 112.191406 125.574219 112.886719 C 125.035156 113.578125 124.445312 114.222656 123.804688 114.820312 C 123.164062 115.414062 122.574219 116.054688 122.039062 116.742188 C 121.503906 117.429688 121.023438 118.15625 120.605469 118.921875 C 120.183594 119.6875 119.828125 120.480469 119.535156 121.304688 C 119.246094 122.125 119.019531 122.964844 118.863281 123.824219 C 118.707031 124.679688 118.617188 125.546875 118.597656 126.417969 C 118.582031 127.289062 118.632812 128.160156 118.753906 129.023438 C 118.875 129.886719 119.066406 130.734375 119.324219 131.570312 C 119.582031 132.402344 119.902344 133.210938 120.292969 133.992188 C 124.703125 142.847656 132.339844 155.050781 144 163.859375 C 144.648438 164.351562 145.332031 164.792969 146.050781 165.1875 C 146.765625 165.578125 147.507812 165.914062 148.273438 166.191406 C 149.039062 166.472656 149.820312 166.695312 150.621094 166.859375 C 151.417969 167.023438 152.226562 167.125 153.039062 167.167969 C 153.855469 167.210938 154.667969 167.191406 155.480469 167.113281 C 156.292969 167.035156 157.09375 166.894531 157.886719 166.695312 C 158.675781 166.496094 159.449219 166.242188 160.203125 165.925781 C 160.953125 165.613281 161.679688 165.242188 162.375 164.820312 L 167.109375 161.941406 C 168.167969 161.296875 169.289062 160.777344 170.46875 160.386719 C 171.648438 160 172.855469 159.746094 174.089844 159.632812 C 175.328125 159.519531 176.5625 159.546875 177.792969 159.714844 C 179.023438 159.882812 180.21875 160.183594 181.378906 160.625 L 200.183594 167.777344 C 200.683594 167.964844 201.171875 168.179688 201.652344 168.417969 C 202.128906 168.65625 202.59375 168.917969 203.046875 169.199219 C 203.5 169.484375 203.9375 169.789062 204.359375 170.117188 C 204.785156 170.441406 205.191406 170.789062 205.578125 171.15625 C 205.96875 171.523438 206.335938 171.90625 206.6875 172.308594 C 207.039062 172.710938 207.371094 173.132812 207.679688 173.566406 C 207.988281 174.003906 208.277344 174.453125 208.542969 174.914062 C 208.808594 175.378906 209.050781 175.855469 209.269531 176.34375 C 209.488281 176.828125 209.683594 177.328125 209.851562 177.832031 C 210.023438 178.339844 210.167969 178.851562 210.285156 179.375 C 210.40625 179.894531 210.5 180.417969 210.566406 180.949219 C 210.636719 181.480469 210.679688 182.011719 210.695312 182.546875 C 210.710938 183.078125 210.699219 183.613281 210.660156 184.144531 C 210.625 184.679688 210.5625 185.210938 210.472656 185.738281 C 210.386719 186.261719 210.269531 186.785156 210.128906 187.300781 C 209.992188 187.816406 209.824219 188.324219 209.636719 188.824219 C 209.417969 189.398438 209.164062 189.957031 208.882812 190.503906 L 203.671875 200.605469 C 203.25 201.421875 202.765625 202.195312 202.210938 202.929688 C 201.660156 203.664062 201.046875 204.347656 200.378906 204.980469 C 199.710938 205.609375 198.996094 206.183594 198.230469 206.691406 C 197.464844 207.203125 196.664062 207.644531 195.824219 208.019531 C 194.984375 208.394531 194.117188 208.695312 193.230469 208.925781 C 192.339844 209.152344 191.433594 209.304688 190.519531 209.382812 C 189.601562 209.457031 188.6875 209.457031 187.769531 209.378906 C 186.855469 209.296875 185.953125 209.144531 185.0625 208.910156 C 155.527344 201.269531 85.144531 174.710938 79.472656 94.398438 C 79.414062 93.605469 79.417969 92.8125 79.476562 92.019531 C 79.535156 91.230469 79.652344 90.445312 79.828125 89.667969 C 80.003906 88.894531 80.230469 88.136719 80.515625 87.394531 C 80.800781 86.652344 81.140625 85.933594 81.527344 85.242188 C 81.917969 84.550781 82.355469 83.886719 82.84375 83.261719 C 83.328125 82.632812 83.859375 82.042969 84.429688 81.488281 C 85.003906 80.9375 85.613281 80.433594 86.257812 79.96875 C 86.90625 79.507812 87.582031 79.09375 88.289062 78.730469 L 97.878906 73.804688 C 98.355469 73.558594 98.839844 73.339844 99.335938 73.144531 C 99.835938 72.945312 100.339844 72.773438 100.851562 72.628906 C 101.367188 72.480469 101.886719 72.359375 102.414062 72.261719 C 102.9375 72.167969 103.46875 72.097656 104 72.054688 C 104.53125 72.007812 105.066406 71.992188 105.601562 72 C 106.136719 72.007812 106.667969 72.042969 107.199219 72.105469 C 107.730469 72.164062 108.257812 72.25 108.777344 72.363281 C 109.300781 72.476562 109.816406 72.613281 110.324219 72.777344 C 110.835938 72.941406 111.332031 73.128906 111.824219 73.339844 C 112.316406 73.554688 112.792969 73.789062 113.261719 74.050781 C 113.726562 74.308594 114.179688 74.589844 114.621094 74.894531 C 115.058594 75.199219 115.484375 75.523438 115.890625 75.867188 C 116.300781 76.214844 116.6875 76.578125 117.0625 76.960938 C 117.433594 77.347656 117.785156 77.746094 118.117188 78.167969 C 118.449219 78.585938 118.761719 79.019531 119.050781 79.46875 C 119.339844 79.917969 119.605469 80.378906 119.851562 80.855469 Z M 119.851562 80.855469 " fill-opacity="1" fill-rule="nonzero"/></svg>