<svg xmlns="http://www.w3.org/2000/svg" xmlns:xlink="http://www.w3.org/1999/xlink" width="500" zoomAndPan="magnify" viewBox="0 0 375 374.999991" height="500" preserveAspectRatio="xMidYMid meet" version="1.0"><defs><g/><clipPath id="76207621cb"><path d="M 58.03125 30.4375 L 316.707031 30.4375 L 316.707031 258.4375 L 58.03125 258.4375 Z M 58.03125 30.4375 " clip-rule="nonzero"/></clipPath></defs><g clip-path="url(#76207621cb)"><path fill="#076e6d" d="M 308.570312 151.066406 C 308.386719 151.410156 307.9375 151.984375 307.03125 151.984375 L 304.316406 151.984375 C 300.300781 151.984375 297.027344 155.253906 297.027344 159.269531 L 297.027344 167.210938 L 290.246094 171.351562 C 285.835938 174.054688 284.363281 179.699219 286.90625 184.210938 C 287.175781 184.695312 287.546875 185.117188 287.992188 185.457031 L 291.140625 187.855469 L 291.140625 190.660156 C 291.140625 202 281.914062 211.226562 270.574219 211.226562 L 244.085938 211.226562 C 241.828125 211.226562 239.996094 213.054688 239.996094 215.3125 L 239.996094 250.59375 L 219.15625 250.59375 C 216.632812 245.34375 214.480469 239.210938 212.753906 232.335938 C 206 205.382812 210.21875 175.917969 224.632812 149.359375 C 232 135.796875 235.273438 120.402344 234.101562 104.839844 C 232.144531 78.859375 217.636719 56.1875 196.695312 42.902344 C 202.851562 40.671875 209.378906 39.253906 216.15625 38.789062 C 236.464844 37.40625 255.871094 44.25 270.703125 58.09375 C 285.328125 71.753906 293.71875 91.054688 293.71875 111.058594 C 293.71875 114.855469 293.359375 118.820312 292.621094 123.175781 C 292.449219 124.199219 292.671875 125.242188 293.238281 126.109375 L 308.492188 149.277344 C 308.988281 150.035156 308.753906 150.722656 308.570312 151.066406 Z M 164.800781 250.59375 C 166.875 245.703125 168.671875 240.257812 170.164062 234.320312 C 177.417969 205.382812 172.9375 173.820312 157.539062 145.457031 C 150.921875 133.273438 147.984375 119.441406 149.039062 105.453125 C 150.941406 80.15625 166.097656 58.355469 187.492188 46.996094 C 208.886719 58.355469 224.042969 80.15625 225.953125 105.453125 C 227 119.449219 224.0625 133.28125 217.449219 145.457031 C 202.050781 173.820312 197.570312 205.382812 204.820312 234.324219 C 206.316406 240.257812 208.109375 245.703125 210.1875 250.59375 Z M 130.902344 211.226562 L 104.410156 211.226562 C 93.070312 211.226562 83.84375 202 83.84375 190.660156 L 83.84375 187.855469 L 86.996094 185.457031 C 87.4375 185.117188 87.808594 184.695312 88.082031 184.210938 C 90.617188 179.699219 89.152344 174.054688 84.734375 171.351562 L 77.957031 167.210938 L 77.957031 159.269531 C 77.957031 155.253906 74.6875 151.984375 70.667969 151.984375 L 67.957031 151.984375 C 67.046875 151.984375 66.601562 151.410156 66.417969 151.066406 C 66.230469 150.722656 66 150.035156 66.496094 149.277344 L 81.746094 126.109375 C 82.316406 125.246094 82.535156 124.199219 82.363281 123.179688 C 81.625 118.796875 81.269531 114.835938 81.269531 111.058594 C 81.269531 91.054688 89.65625 71.753906 104.285156 58.09375 C 119.109375 44.25 138.488281 37.382812 158.832031 38.789062 C 165.605469 39.253906 172.132812 40.671875 178.289062 42.902344 C 157.351562 56.1875 142.84375 78.859375 140.886719 104.839844 C 139.710938 120.398438 142.984375 135.789062 150.351562 149.359375 C 164.769531 175.917969 168.988281 205.382812 162.230469 232.332031 C 160.503906 239.210938 158.355469 245.34375 155.828125 250.59375 L 134.988281 250.59375 L 134.988281 215.3125 C 134.988281 213.054688 133.160156 211.226562 130.902344 211.226562 Z M 315.320312 144.777344 L 300.941406 122.9375 C 301.578125 118.742188 301.890625 114.839844 301.890625 111.058594 C 301.890625 88.800781 292.558594 67.316406 276.285156 52.121094 C 259.777344 36.710938 238.226562 29.089844 215.59375 30.628906 C 205.636719 31.3125 196.15625 33.839844 187.492188 37.871094 C 178.828125 33.839844 169.347656 31.3125 159.390625 30.628906 C 136.78125 29.089844 115.207031 36.707031 98.703125 52.121094 C 82.429688 67.316406 73.09375 88.800781 73.09375 111.058594 C 73.09375 114.824219 73.40625 118.726562 74.042969 122.9375 L 59.667969 144.777344 C 57.660156 147.832031 57.488281 151.730469 59.21875 154.945312 C 60.949219 158.160156 64.300781 160.160156 67.957031 160.160156 L 69.777344 160.160156 L 69.777344 169.503906 C 69.777344 170.929688 70.519531 172.25 71.738281 172.992188 L 80.46875 178.328125 C 80.9375 178.613281 81.179688 179.128906 81.132812 179.644531 L 77.28125 182.574219 C 76.261719 183.347656 75.664062 184.550781 75.664062 185.828125 L 75.664062 190.660156 C 75.664062 206.507812 88.558594 219.402344 104.410156 219.402344 L 126.8125 219.402344 L 126.8125 250.59375 L 111.558594 250.59375 C 109.300781 250.59375 107.472656 252.425781 107.472656 254.679688 C 107.472656 256.941406 109.300781 258.769531 111.558594 258.769531 L 263.429688 258.769531 C 265.6875 258.769531 267.515625 256.941406 267.515625 254.679688 C 267.515625 252.425781 265.6875 250.59375 263.429688 250.59375 L 248.175781 250.59375 L 248.175781 219.402344 L 270.574219 219.402344 C 286.425781 219.402344 299.320312 206.507812 299.320312 190.660156 L 299.320312 185.828125 C 299.320312 184.550781 298.722656 183.347656 297.703125 182.574219 L 293.855469 179.644531 C 293.804688 179.128906 294.046875 178.613281 294.511719 178.328125 L 303.246094 172.992188 C 304.464844 172.25 305.207031 170.929688 305.207031 169.503906 L 305.207031 160.160156 L 307.03125 160.160156 C 310.6875 160.160156 314.035156 158.160156 315.769531 154.945312 C 317.5 151.726562 317.328125 147.832031 315.320312 144.777344 " fill-opacity="1" fill-rule="nonzero"/></g><path fill="#076e6d" d="M 196.085938 154.179688 L 191.582031 154.179688 L 191.582031 144.703125 C 192.492188 144.945312 193.472656 145.101562 194.519531 145.121094 C 197.035156 145.121094 200.710938 144.253906 204.332031 140.265625 C 207.988281 136.238281 208.789062 131.035156 209.496094 126.445312 C 210.5625 119.515625 211.335938 116.125 217.183594 114.863281 C 219.390625 114.386719 220.792969 112.214844 220.316406 110.003906 C 219.84375 107.796875 217.675781 106.378906 215.460938 106.871094 C 203.851562 109.375 202.441406 118.523438 201.414062 125.203125 C 200.832031 128.988281 200.28125 132.566406 198.277344 134.769531 C 196.957031 136.230469 195.804688 137.011719 194.496094 136.949219 C 193.414062 136.933594 192.347656 136.339844 191.582031 135.753906 L 191.582031 108.246094 C 191.582031 105.988281 189.75 104.15625 187.492188 104.15625 C 185.234375 104.15625 183.402344 105.988281 183.402344 108.246094 L 183.402344 135.757812 C 182.640625 136.339844 181.574219 136.933594 180.488281 136.949219 C 179.183594 136.980469 178.03125 136.230469 176.710938 134.773438 C 174.707031 132.566406 174.15625 128.988281 173.574219 125.203125 C 172.546875 118.523438 171.136719 109.375 159.527344 106.871094 C 157.316406 106.390625 155.144531 107.804688 154.667969 110.003906 C 154.191406 112.214844 155.59375 114.386719 157.800781 114.863281 C 163.648438 116.125 164.421875 119.515625 165.492188 126.449219 C 166.199219 131.039062 167 136.238281 170.660156 140.269531 C 174.277344 144.253906 177.949219 145.121094 180.464844 145.121094 C 180.539062 145.121094 180.617188 145.121094 180.6875 145.121094 C 181.652344 145.101562 182.554688 144.953125 183.402344 144.730469 L 183.402344 154.179688 L 178.902344 154.179688 C 176.644531 154.179688 174.8125 156.011719 174.8125 158.269531 C 174.8125 160.527344 176.644531 162.359375 178.902344 162.359375 L 196.085938 162.359375 C 198.347656 162.359375 200.175781 160.527344 200.175781 158.269531 C 200.175781 156.011719 198.347656 154.179688 196.085938 154.179688 " fill-opacity="1" fill-rule="nonzero"/><g fill="#076e6d" fill-opacity="1"><g transform="translate(97.760628, 344.624999)"><g><path d="M 5.28125 -14.71875 C 5.476562 -14.71875 5.691406 -14.695312 5.921875 -14.65625 C 6.160156 -14.613281 6.363281 -14.539062 6.53125 -14.4375 C 6.707031 -14.34375 6.796875 -14.195312 6.796875 -14 C 6.796875 -13.851562 6.742188 -13.722656 6.640625 -13.609375 C 6.535156 -13.492188 6.414062 -13.4375 6.28125 -13.4375 C 6.144531 -13.4375 5.976562 -13.472656 5.78125 -13.546875 C 5.582031 -13.617188 5.367188 -13.65625 5.140625 -13.65625 C 4.859375 -13.65625 4.617188 -13.59375 4.421875 -13.46875 C 4.222656 -13.34375 4.066406 -13.160156 3.953125 -12.921875 C 3.847656 -12.691406 3.796875 -12.410156 3.796875 -12.078125 L 3.796875 -0.59375 C 3.796875 -0.4375 3.738281 -0.296875 3.625 -0.171875 C 3.507812 -0.0546875 3.367188 0 3.203125 0 C 3.023438 0 2.878906 -0.0546875 2.765625 -0.171875 C 2.648438 -0.296875 2.59375 -0.4375 2.59375 -0.59375 L 2.59375 -12.078125 C 2.59375 -12.929688 2.84375 -13.582031 3.34375 -14.03125 C 3.84375 -14.488281 4.488281 -14.71875 5.28125 -14.71875 Z M 6.046875 -10.015625 C 6.203125 -10.015625 6.332031 -9.960938 6.4375 -9.859375 C 6.539062 -9.753906 6.59375 -9.617188 6.59375 -9.453125 C 6.59375 -9.296875 6.539062 -9.164062 6.4375 -9.0625 C 6.332031 -8.957031 6.203125 -8.90625 6.046875 -8.90625 L 1.140625 -8.90625 C 0.992188 -8.90625 0.863281 -8.957031 0.75 -9.0625 C 0.632812 -9.175781 0.578125 -9.304688 0.578125 -9.453125 C 0.578125 -9.628906 0.632812 -9.765625 0.75 -9.859375 C 0.863281 -9.960938 0.992188 -10.015625 1.140625 -10.015625 Z M 6.046875 -10.015625 "/></g></g></g><g fill="#076e6d" fill-opacity="1"><g transform="translate(104.957792, 344.624999)"><g><path d="M 9.953125 -10.21875 C 10.128906 -10.21875 10.273438 -10.15625 10.390625 -10.03125 C 10.503906 -9.914062 10.5625 -9.769531 10.5625 -9.59375 L 10.5625 -0.59375 C 10.5625 -0.4375 10.5 -0.296875 10.375 -0.171875 C 10.257812 -0.0546875 10.117188 0 9.953125 0 C 9.785156 0 9.644531 -0.0546875 9.53125 -0.171875 C 9.414062 -0.296875 9.359375 -0.4375 9.359375 -0.59375 L 9.359375 -2.984375 L 9.703125 -3.140625 C 9.703125 -2.765625 9.597656 -2.382812 9.390625 -2 C 9.179688 -1.613281 8.894531 -1.253906 8.53125 -0.921875 C 8.175781 -0.585938 7.753906 -0.316406 7.265625 -0.109375 C 6.785156 0.0976562 6.265625 0.203125 5.703125 0.203125 C 4.796875 0.203125 3.984375 -0.03125 3.265625 -0.5 C 2.554688 -0.96875 2 -1.609375 1.59375 -2.421875 C 1.1875 -3.234375 0.984375 -4.144531 0.984375 -5.15625 C 0.984375 -6.195312 1.1875 -7.113281 1.59375 -7.90625 C 2.007812 -8.695312 2.570312 -9.316406 3.28125 -9.765625 C 3.988281 -10.222656 4.789062 -10.453125 5.6875 -10.453125 C 6.257812 -10.453125 6.796875 -10.351562 7.296875 -10.15625 C 7.796875 -9.957031 8.226562 -9.679688 8.59375 -9.328125 C 8.96875 -8.984375 9.257812 -8.585938 9.46875 -8.140625 C 9.675781 -7.703125 9.78125 -7.242188 9.78125 -6.765625 L 9.359375 -7.0625 L 9.359375 -9.59375 C 9.359375 -9.769531 9.414062 -9.914062 9.53125 -10.03125 C 9.644531 -10.15625 9.785156 -10.21875 9.953125 -10.21875 Z M 5.796875 -0.921875 C 6.503906 -0.921875 7.128906 -1.101562 7.671875 -1.46875 C 8.222656 -1.832031 8.65625 -2.335938 8.96875 -2.984375 C 9.28125 -3.628906 9.4375 -4.351562 9.4375 -5.15625 C 9.4375 -5.945312 9.28125 -6.65625 8.96875 -7.28125 C 8.65625 -7.90625 8.222656 -8.40625 7.671875 -8.78125 C 7.128906 -9.15625 6.503906 -9.34375 5.796875 -9.34375 C 5.109375 -9.34375 4.484375 -9.160156 3.921875 -8.796875 C 3.367188 -8.441406 2.9375 -7.945312 2.625 -7.3125 C 2.3125 -6.6875 2.15625 -5.96875 2.15625 -5.15625 C 2.15625 -4.351562 2.3125 -3.628906 2.625 -2.984375 C 2.9375 -2.335938 3.363281 -1.832031 3.90625 -1.46875 C 4.457031 -1.101562 5.085938 -0.921875 5.796875 -0.921875 Z M 5.796875 -0.921875 "/></g></g></g><g fill="#076e6d" fill-opacity="1"><g transform="translate(117.073006, 344.624999)"><g><path d="M 6.1875 -10.296875 C 7.007812 -10.296875 7.710938 -10.078125 8.296875 -9.640625 C 8.890625 -9.210938 9.289062 -8.570312 9.5 -7.71875 L 9.21875 -7.640625 L 9.34375 -8 C 9.507812 -8.394531 9.796875 -8.769531 10.203125 -9.125 C 10.609375 -9.476562 11.070312 -9.757812 11.59375 -9.96875 C 12.113281 -10.1875 12.644531 -10.296875 13.1875 -10.296875 C 14.019531 -10.296875 14.691406 -10.113281 15.203125 -9.75 C 15.722656 -9.394531 16.097656 -8.914062 16.328125 -8.3125 C 16.566406 -7.707031 16.6875 -7.023438 16.6875 -6.265625 L 16.6875 -0.59375 C 16.6875 -0.4375 16.628906 -0.296875 16.515625 -0.171875 C 16.398438 -0.0546875 16.253906 0 16.078125 0 C 15.898438 0 15.753906 -0.0546875 15.640625 -0.171875 C 15.535156 -0.296875 15.484375 -0.4375 15.484375 -0.59375 L 15.484375 -6.203125 C 15.484375 -6.742188 15.394531 -7.238281 15.21875 -7.6875 C 15.039062 -8.144531 14.765625 -8.507812 14.390625 -8.78125 C 14.023438 -9.050781 13.53125 -9.1875 12.90625 -9.1875 C 12.351562 -9.1875 11.828125 -9.050781 11.328125 -8.78125 C 10.828125 -8.507812 10.421875 -8.144531 10.109375 -7.6875 C 9.796875 -7.238281 9.640625 -6.742188 9.640625 -6.203125 L 9.640625 -0.59375 C 9.640625 -0.4375 9.582031 -0.296875 9.46875 -0.171875 C 9.351562 -0.0546875 9.210938 0 9.046875 0 C 8.867188 0 8.722656 -0.0546875 8.609375 -0.171875 C 8.492188 -0.296875 8.4375 -0.4375 8.4375 -0.59375 L 8.4375 -6.265625 C 8.4375 -6.804688 8.351562 -7.296875 8.1875 -7.734375 C 8.03125 -8.179688 7.769531 -8.535156 7.40625 -8.796875 C 7.050781 -9.054688 6.566406 -9.1875 5.953125 -9.1875 C 5.410156 -9.1875 4.894531 -9.054688 4.40625 -8.796875 C 3.925781 -8.535156 3.535156 -8.179688 3.234375 -7.734375 C 2.929688 -7.296875 2.78125 -6.804688 2.78125 -6.265625 L 2.78125 -0.59375 C 2.78125 -0.4375 2.71875 -0.296875 2.59375 -0.171875 C 2.476562 -0.0546875 2.34375 0 2.1875 0 C 2 0 1.847656 -0.0546875 1.734375 -0.171875 C 1.628906 -0.296875 1.578125 -0.4375 1.578125 -0.59375 L 1.578125 -9.5625 C 1.578125 -9.71875 1.632812 -9.851562 1.75 -9.96875 C 1.863281 -10.09375 2.007812 -10.15625 2.1875 -10.15625 C 2.351562 -10.15625 2.492188 -10.09375 2.609375 -9.96875 C 2.722656 -9.851562 2.78125 -9.71875 2.78125 -9.5625 L 2.78125 -7.703125 L 2.234375 -6.953125 C 2.273438 -7.359375 2.40625 -7.757812 2.625 -8.15625 C 2.84375 -8.5625 3.132812 -8.921875 3.5 -9.234375 C 3.863281 -9.554688 4.273438 -9.8125 4.734375 -10 C 5.191406 -10.195312 5.675781 -10.296875 6.1875 -10.296875 Z M 6.1875 -10.296875 "/></g></g></g><g fill="#076e6d" fill-opacity="1"><g transform="translate(135.305807, 344.624999)"><g><path d="M 2.734375 -0.59375 C 2.734375 -0.4375 2.671875 -0.296875 2.546875 -0.171875 C 2.429688 -0.0546875 2.296875 0 2.140625 0 C 1.960938 0 1.816406 -0.0546875 1.703125 -0.171875 C 1.597656 -0.296875 1.546875 -0.4375 1.546875 -0.59375 L 1.546875 -9.796875 C 1.546875 -9.960938 1.597656 -10.101562 1.703125 -10.21875 C 1.816406 -10.34375 1.960938 -10.40625 2.140625 -10.40625 C 2.316406 -10.40625 2.457031 -10.34375 2.5625 -10.21875 C 2.675781 -10.101562 2.734375 -9.960938 2.734375 -9.796875 Z M 2.140625 -11.75 C 1.859375 -11.75 1.644531 -11.8125 1.5 -11.9375 C 1.363281 -12.0625 1.296875 -12.242188 1.296875 -12.484375 L 1.296875 -12.6875 C 1.296875 -12.925781 1.367188 -13.109375 1.515625 -13.234375 C 1.671875 -13.359375 1.882812 -13.421875 2.15625 -13.421875 C 2.40625 -13.421875 2.597656 -13.359375 2.734375 -13.234375 C 2.878906 -13.109375 2.953125 -12.925781 2.953125 -12.6875 L 2.953125 -12.484375 C 2.953125 -12.242188 2.878906 -12.0625 2.734375 -11.9375 C 2.597656 -11.8125 2.398438 -11.75 2.140625 -11.75 Z M 2.140625 -11.75 "/></g></g></g><g fill="#076e6d" fill-opacity="1"><g transform="translate(139.584122, 344.624999)"><g><path d="M 2.90625 -0.59375 C 2.90625 -0.4375 2.84375 -0.296875 2.71875 -0.171875 C 2.601562 -0.0546875 2.460938 0 2.296875 0 C 2.128906 0 1.988281 -0.0546875 1.875 -0.171875 C 1.757812 -0.296875 1.703125 -0.4375 1.703125 -0.59375 L 1.703125 -14.203125 C 1.703125 -14.359375 1.757812 -14.492188 1.875 -14.609375 C 2 -14.734375 2.140625 -14.796875 2.296875 -14.796875 C 2.472656 -14.796875 2.617188 -14.734375 2.734375 -14.609375 C 2.847656 -14.492188 2.90625 -14.359375 2.90625 -14.203125 Z M 2.90625 -0.59375 "/></g></g></g><g fill="#076e6d" fill-opacity="1"><g transform="translate(144.18231, 344.624999)"><g><path d="M 9.203125 -10.40625 C 9.367188 -10.40625 9.507812 -10.34375 9.625 -10.21875 C 9.738281 -10.101562 9.796875 -9.960938 9.796875 -9.796875 L 9.796875 -0.984375 C 9.796875 0.0976562 9.582031 1.007812 9.15625 1.75 C 8.726562 2.488281 8.15625 3.046875 7.4375 3.421875 C 6.71875 3.804688 5.898438 4 4.984375 4 C 4.410156 4 3.878906 3.9375 3.390625 3.8125 C 2.898438 3.6875 2.503906 3.519531 2.203125 3.3125 C 2.035156 3.226562 1.910156 3.117188 1.828125 2.984375 C 1.753906 2.847656 1.75 2.707031 1.8125 2.5625 C 1.882812 2.375 1.988281 2.25 2.125 2.1875 C 2.269531 2.125 2.414062 2.128906 2.5625 2.203125 C 2.789062 2.316406 3.117188 2.460938 3.546875 2.640625 C 3.972656 2.816406 4.457031 2.90625 5 2.90625 C 5.726562 2.90625 6.363281 2.75 6.90625 2.4375 C 7.445312 2.132812 7.863281 1.691406 8.15625 1.109375 C 8.445312 0.523438 8.59375 -0.160156 8.59375 -0.953125 L 8.59375 -2.40625 L 8.734375 -1.921875 C 8.535156 -1.503906 8.253906 -1.132812 7.890625 -0.8125 C 7.523438 -0.5 7.101562 -0.25 6.625 -0.0625 C 6.15625 0.113281 5.65625 0.203125 5.125 0.203125 C 4.320312 0.203125 3.65625 0.0390625 3.125 -0.28125 C 2.601562 -0.613281 2.210938 -1.066406 1.953125 -1.640625 C 1.703125 -2.210938 1.578125 -2.882812 1.578125 -3.65625 L 1.578125 -9.796875 C 1.578125 -9.960938 1.628906 -10.101562 1.734375 -10.21875 C 1.847656 -10.34375 2 -10.40625 2.1875 -10.40625 C 2.351562 -10.40625 2.492188 -10.34375 2.609375 -10.21875 C 2.722656 -10.101562 2.78125 -9.960938 2.78125 -9.796875 L 2.78125 -3.84375 C 2.78125 -2.90625 2.984375 -2.179688 3.390625 -1.671875 C 3.796875 -1.171875 4.457031 -0.921875 5.375 -0.921875 C 5.945312 -0.921875 6.472656 -1.054688 6.953125 -1.328125 C 7.441406 -1.597656 7.835938 -1.957031 8.140625 -2.40625 C 8.441406 -2.851562 8.59375 -3.332031 8.59375 -3.84375 L 8.59375 -9.796875 C 8.59375 -9.960938 8.648438 -10.101562 8.765625 -10.21875 C 8.878906 -10.34375 9.023438 -10.40625 9.203125 -10.40625 Z M 9.203125 -10.40625 "/></g></g></g><g fill="#076e6d" fill-opacity="1"><g transform="translate(155.537832, 344.624999)"><g/></g></g><g fill="#076e6d" fill-opacity="1"><g transform="translate(160.995677, 344.624999)"><g><path d="M 6.4375 -10.296875 C 7.34375 -10.296875 8.144531 -10.070312 8.84375 -9.625 C 9.550781 -9.175781 10.109375 -8.5625 10.515625 -7.78125 C 10.929688 -7.007812 11.140625 -6.113281 11.140625 -5.09375 C 11.140625 -4.082031 10.929688 -3.179688 10.515625 -2.390625 C 10.109375 -1.609375 9.550781 -0.988281 8.84375 -0.53125 C 8.132812 -0.0820312 7.335938 0.140625 6.453125 0.140625 C 5.992188 0.140625 5.550781 0.0703125 5.125 -0.0625 C 4.707031 -0.207031 4.320312 -0.398438 3.96875 -0.640625 C 3.625 -0.878906 3.316406 -1.160156 3.046875 -1.484375 C 2.785156 -1.816406 2.578125 -2.175781 2.421875 -2.5625 L 2.78125 -2.8125 L 2.78125 3.40625 C 2.78125 3.5625 2.722656 3.695312 2.609375 3.8125 C 2.492188 3.9375 2.351562 4 2.1875 4 C 2.007812 4 1.863281 3.9375 1.75 3.8125 C 1.632812 3.695312 1.578125 3.5625 1.578125 3.40625 L 1.578125 -9.640625 C 1.578125 -9.816406 1.628906 -9.960938 1.734375 -10.078125 C 1.847656 -10.203125 2 -10.265625 2.1875 -10.265625 C 2.351562 -10.265625 2.492188 -10.203125 2.609375 -10.078125 C 2.722656 -9.960938 2.78125 -9.816406 2.78125 -9.640625 L 2.78125 -7.484375 L 2.5 -7.640625 C 2.632812 -8.054688 2.832031 -8.425781 3.09375 -8.75 C 3.351562 -9.070312 3.65625 -9.347656 4 -9.578125 C 4.34375 -9.816406 4.722656 -9.992188 5.140625 -10.109375 C 5.554688 -10.234375 5.988281 -10.296875 6.4375 -10.296875 Z M 6.34375 -9.1875 C 5.625 -9.1875 4.988281 -9.007812 4.4375 -8.65625 C 3.894531 -8.300781 3.46875 -7.816406 3.15625 -7.203125 C 2.84375 -6.597656 2.6875 -5.894531 2.6875 -5.09375 C 2.6875 -4.3125 2.84375 -3.609375 3.15625 -2.984375 C 3.46875 -2.359375 3.894531 -1.867188 4.4375 -1.515625 C 4.988281 -1.160156 5.625 -0.984375 6.34375 -0.984375 C 7.050781 -0.984375 7.671875 -1.160156 8.203125 -1.515625 C 8.742188 -1.867188 9.175781 -2.359375 9.5 -2.984375 C 9.820312 -3.609375 9.984375 -4.3125 9.984375 -5.09375 C 9.984375 -5.882812 9.820312 -6.585938 9.5 -7.203125 C 9.175781 -7.816406 8.742188 -8.300781 8.203125 -8.65625 C 7.671875 -9.007812 7.050781 -9.1875 6.34375 -9.1875 Z M 6.34375 -9.1875 "/></g></g></g><g fill="#076e6d" fill-opacity="1"><g transform="translate(173.110892, 344.624999)"><g><path d="M 1 -1.625 C 0.894531 -1.78125 0.84375 -1.929688 0.84375 -2.078125 C 0.851562 -2.234375 0.9375 -2.359375 1.09375 -2.453125 C 1.207031 -2.546875 1.332031 -2.585938 1.46875 -2.578125 C 1.613281 -2.566406 1.742188 -2.5 1.859375 -2.375 C 2.222656 -1.914062 2.660156 -1.539062 3.171875 -1.25 C 3.679688 -0.957031 4.289062 -0.8125 5 -0.8125 C 5.375 -0.8125 5.742188 -0.875 6.109375 -1 C 6.472656 -1.132812 6.773438 -1.332031 7.015625 -1.59375 C 7.253906 -1.851562 7.375 -2.179688 7.375 -2.578125 C 7.375 -2.992188 7.253906 -3.328125 7.015625 -3.578125 C 6.773438 -3.828125 6.460938 -4.023438 6.078125 -4.171875 C 5.703125 -4.328125 5.300781 -4.457031 4.875 -4.5625 C 4.425781 -4.675781 3.988281 -4.8125 3.5625 -4.96875 C 3.132812 -5.125 2.753906 -5.316406 2.421875 -5.546875 C 2.097656 -5.785156 1.835938 -6.070312 1.640625 -6.40625 C 1.441406 -6.738281 1.34375 -7.144531 1.34375 -7.625 C 1.34375 -8.175781 1.492188 -8.664062 1.796875 -9.09375 C 2.109375 -9.519531 2.523438 -9.851562 3.046875 -10.09375 C 3.578125 -10.332031 4.175781 -10.453125 4.84375 -10.453125 C 5.175781 -10.453125 5.535156 -10.410156 5.921875 -10.328125 C 6.304688 -10.242188 6.6875 -10.097656 7.0625 -9.890625 C 7.4375 -9.691406 7.769531 -9.421875 8.0625 -9.078125 C 8.175781 -8.960938 8.234375 -8.828125 8.234375 -8.671875 C 8.234375 -8.515625 8.171875 -8.378906 8.046875 -8.265625 C 7.929688 -8.179688 7.800781 -8.140625 7.65625 -8.140625 C 7.519531 -8.140625 7.40625 -8.191406 7.3125 -8.296875 C 7 -8.660156 6.617188 -8.9375 6.171875 -9.125 C 5.734375 -9.3125 5.265625 -9.40625 4.765625 -9.40625 C 4.378906 -9.40625 4.015625 -9.335938 3.671875 -9.203125 C 3.328125 -9.078125 3.039062 -8.890625 2.8125 -8.640625 C 2.59375 -8.390625 2.484375 -8.054688 2.484375 -7.640625 C 2.503906 -7.253906 2.640625 -6.941406 2.890625 -6.703125 C 3.140625 -6.460938 3.46875 -6.257812 3.875 -6.09375 C 4.28125 -5.9375 4.734375 -5.789062 5.234375 -5.65625 C 5.660156 -5.550781 6.070312 -5.425781 6.46875 -5.28125 C 6.863281 -5.132812 7.207031 -4.953125 7.5 -4.734375 C 7.800781 -4.515625 8.039062 -4.238281 8.21875 -3.90625 C 8.40625 -3.570312 8.5 -3.148438 8.5 -2.640625 C 8.5 -2.054688 8.332031 -1.550781 8 -1.125 C 7.675781 -0.695312 7.238281 -0.367188 6.6875 -0.140625 C 6.144531 0.0859375 5.539062 0.203125 4.875 0.203125 C 4.15625 0.203125 3.457031 0.0625 2.78125 -0.21875 C 2.113281 -0.5 1.519531 -0.96875 1 -1.625 Z M 1 -1.625 "/></g></g></g><g fill="#076e6d" fill-opacity="1"><g transform="translate(182.487193, 344.624999)"><g><path d="M 9.203125 -10.40625 C 9.367188 -10.40625 9.507812 -10.34375 9.625 -10.21875 C 9.738281 -10.101562 9.796875 -9.960938 9.796875 -9.796875 L 9.796875 -0.984375 C 9.796875 0.0976562 9.582031 1.007812 9.15625 1.75 C 8.726562 2.488281 8.15625 3.046875 7.4375 3.421875 C 6.71875 3.804688 5.898438 4 4.984375 4 C 4.410156 4 3.878906 3.9375 3.390625 3.8125 C 2.898438 3.6875 2.503906 3.519531 2.203125 3.3125 C 2.035156 3.226562 1.910156 3.117188 1.828125 2.984375 C 1.753906 2.847656 1.75 2.707031 1.8125 2.5625 C 1.882812 2.375 1.988281 2.25 2.125 2.1875 C 2.269531 2.125 2.414062 2.128906 2.5625 2.203125 C 2.789062 2.316406 3.117188 2.460938 3.546875 2.640625 C 3.972656 2.816406 4.457031 2.90625 5 2.90625 C 5.726562 2.90625 6.363281 2.75 6.90625 2.4375 C 7.445312 2.132812 7.863281 1.691406 8.15625 1.109375 C 8.445312 0.523438 8.59375 -0.160156 8.59375 -0.953125 L 8.59375 -2.40625 L 8.734375 -1.921875 C 8.535156 -1.503906 8.253906 -1.132812 7.890625 -0.8125 C 7.523438 -0.5 7.101562 -0.25 6.625 -0.0625 C 6.15625 0.113281 5.65625 0.203125 5.125 0.203125 C 4.320312 0.203125 3.65625 0.0390625 3.125 -0.28125 C 2.601562 -0.613281 2.210938 -1.066406 1.953125 -1.640625 C 1.703125 -2.210938 1.578125 -2.882812 1.578125 -3.65625 L 1.578125 -9.796875 C 1.578125 -9.960938 1.628906 -10.101562 1.734375 -10.21875 C 1.847656 -10.34375 2 -10.40625 2.1875 -10.40625 C 2.351562 -10.40625 2.492188 -10.34375 2.609375 -10.21875 C 2.722656 -10.101562 2.78125 -9.960938 2.78125 -9.796875 L 2.78125 -3.84375 C 2.78125 -2.90625 2.984375 -2.179688 3.390625 -1.671875 C 3.796875 -1.171875 4.457031 -0.921875 5.375 -0.921875 C 5.945312 -0.921875 6.472656 -1.054688 6.953125 -1.328125 C 7.441406 -1.597656 7.835938 -1.957031 8.140625 -2.40625 C 8.441406 -2.851562 8.59375 -3.332031 8.59375 -3.84375 L 8.59375 -9.796875 C 8.59375 -9.960938 8.648438 -10.101562 8.765625 -10.21875 C 8.878906 -10.34375 9.023438 -10.40625 9.203125 -10.40625 Z M 9.203125 -10.40625 "/></g></g></g><g fill="#076e6d" fill-opacity="1"><g transform="translate(193.842714, 344.624999)"><g><path d="M 6.078125 -10.453125 C 6.722656 -10.453125 7.3125 -10.382812 7.84375 -10.25 C 8.375 -10.113281 8.800781 -9.921875 9.125 -9.671875 C 9.457031 -9.429688 9.625 -9.175781 9.625 -8.90625 C 9.625 -8.769531 9.578125 -8.632812 9.484375 -8.5 C 9.390625 -8.375 9.257812 -8.3125 9.09375 -8.3125 C 8.9375 -8.3125 8.804688 -8.351562 8.703125 -8.4375 C 8.609375 -8.519531 8.507812 -8.613281 8.40625 -8.71875 C 8.3125 -8.820312 8.171875 -8.921875 7.984375 -9.015625 C 7.804688 -9.097656 7.554688 -9.171875 7.234375 -9.234375 C 6.921875 -9.304688 6.554688 -9.34375 6.140625 -9.34375 C 5.390625 -9.34375 4.710938 -9.15625 4.109375 -8.78125 C 3.515625 -8.40625 3.046875 -7.898438 2.703125 -7.265625 C 2.359375 -6.628906 2.1875 -5.921875 2.1875 -5.140625 C 2.1875 -4.335938 2.351562 -3.613281 2.6875 -2.96875 C 3.019531 -2.332031 3.476562 -1.832031 4.0625 -1.46875 C 4.644531 -1.101562 5.332031 -0.921875 6.125 -0.921875 C 6.65625 -0.921875 7.066406 -0.96875 7.359375 -1.0625 C 7.648438 -1.15625 7.90625 -1.257812 8.125 -1.375 C 8.375 -1.519531 8.554688 -1.660156 8.671875 -1.796875 C 8.785156 -1.941406 8.9375 -2.015625 9.125 -2.015625 C 9.289062 -2.015625 9.414062 -1.960938 9.5 -1.859375 C 9.59375 -1.765625 9.640625 -1.640625 9.640625 -1.484375 C 9.640625 -1.265625 9.484375 -1.023438 9.171875 -0.765625 C 8.859375 -0.503906 8.425781 -0.273438 7.875 -0.078125 C 7.332031 0.109375 6.707031 0.203125 6 0.203125 C 5 0.203125 4.117188 -0.03125 3.359375 -0.5 C 2.609375 -0.96875 2.023438 -1.601562 1.609375 -2.40625 C 1.191406 -3.21875 0.984375 -4.128906 0.984375 -5.140625 C 0.984375 -6.109375 1.195312 -6.992188 1.625 -7.796875 C 2.050781 -8.597656 2.644531 -9.238281 3.40625 -9.71875 C 4.175781 -10.207031 5.066406 -10.453125 6.078125 -10.453125 Z M 6.078125 -10.453125 "/></g></g></g><g fill="#076e6d" fill-opacity="1"><g transform="translate(204.198629, 344.624999)"><g><path d="M 6.234375 -10.296875 C 7.078125 -10.296875 7.757812 -10.113281 8.28125 -9.75 C 8.800781 -9.394531 9.179688 -8.910156 9.421875 -8.296875 C 9.671875 -7.679688 9.796875 -7.003906 9.796875 -6.265625 L 9.796875 -0.59375 C 9.796875 -0.4375 9.734375 -0.296875 9.609375 -0.171875 C 9.492188 -0.0546875 9.359375 0 9.203125 0 C 9.015625 0 8.863281 -0.0546875 8.75 -0.171875 C 8.644531 -0.296875 8.59375 -0.4375 8.59375 -0.59375 L 8.59375 -6.265625 C 8.59375 -6.804688 8.507812 -7.296875 8.34375 -7.734375 C 8.175781 -8.179688 7.90625 -8.535156 7.53125 -8.796875 C 7.164062 -9.054688 6.671875 -9.1875 6.046875 -9.1875 C 5.484375 -9.1875 4.953125 -9.054688 4.453125 -8.796875 C 3.953125 -8.535156 3.546875 -8.179688 3.234375 -7.734375 C 2.929688 -7.296875 2.78125 -6.804688 2.78125 -6.265625 L 2.78125 -0.59375 C 2.78125 -0.4375 2.71875 -0.296875 2.59375 -0.171875 C 2.476562 -0.0546875 2.34375 0 2.1875 0 C 2 0 1.847656 -0.0546875 1.734375 -0.171875 C 1.628906 -0.296875 1.578125 -0.4375 1.578125 -0.59375 L 1.578125 -14.203125 C 1.578125 -14.359375 1.632812 -14.492188 1.75 -14.609375 C 1.863281 -14.734375 2.007812 -14.796875 2.1875 -14.796875 C 2.351562 -14.796875 2.492188 -14.734375 2.609375 -14.609375 C 2.722656 -14.492188 2.78125 -14.359375 2.78125 -14.203125 L 2.78125 -7.71875 L 2.3125 -7.015625 C 2.34375 -7.429688 2.472656 -7.832031 2.703125 -8.21875 C 2.941406 -8.613281 3.25 -8.96875 3.625 -9.28125 C 4 -9.601562 4.410156 -9.851562 4.859375 -10.03125 C 5.316406 -10.207031 5.773438 -10.296875 6.234375 -10.296875 Z M 6.234375 -10.296875 "/></g></g></g><g fill="#076e6d" fill-opacity="1"><g transform="translate(215.554151, 344.624999)"><g><path d="M 11.09375 -5.125 C 11.09375 -4.101562 10.875 -3.191406 10.4375 -2.390625 C 10 -1.585938 9.398438 -0.953125 8.640625 -0.484375 C 7.878906 -0.0234375 7.015625 0.203125 6.046875 0.203125 C 5.097656 0.203125 4.238281 -0.0234375 3.46875 -0.484375 C 2.695312 -0.953125 2.085938 -1.585938 1.640625 -2.390625 C 1.203125 -3.191406 0.984375 -4.101562 0.984375 -5.125 C 0.984375 -6.144531 1.203125 -7.054688 1.640625 -7.859375 C 2.085938 -8.660156 2.695312 -9.289062 3.46875 -9.75 C 4.238281 -10.21875 5.097656 -10.453125 6.046875 -10.453125 C 7.015625 -10.453125 7.878906 -10.21875 8.640625 -9.75 C 9.398438 -9.289062 10 -8.660156 10.4375 -7.859375 C 10.875 -7.054688 11.09375 -6.144531 11.09375 -5.125 Z M 9.90625 -5.125 C 9.90625 -5.9375 9.738281 -6.65625 9.40625 -7.28125 C 9.070312 -7.914062 8.613281 -8.414062 8.03125 -8.78125 C 7.445312 -9.15625 6.785156 -9.34375 6.046875 -9.34375 C 5.316406 -9.34375 4.660156 -9.15625 4.078125 -8.78125 C 3.492188 -8.414062 3.03125 -7.914062 2.6875 -7.28125 C 2.351562 -6.65625 2.1875 -5.9375 2.1875 -5.125 C 2.1875 -4.3125 2.351562 -3.585938 2.6875 -2.953125 C 3.03125 -2.328125 3.492188 -1.832031 4.078125 -1.46875 C 4.660156 -1.101562 5.316406 -0.921875 6.046875 -0.921875 C 6.785156 -0.921875 7.445312 -1.101562 8.03125 -1.46875 C 8.613281 -1.832031 9.070312 -2.328125 9.40625 -2.953125 C 9.738281 -3.585938 9.90625 -4.3125 9.90625 -5.125 Z M 9.90625 -5.125 "/></g></g></g><g fill="#076e6d" fill-opacity="1"><g transform="translate(227.629379, 344.624999)"><g><path d="M 2.90625 -0.59375 C 2.90625 -0.4375 2.84375 -0.296875 2.71875 -0.171875 C 2.601562 -0.0546875 2.460938 0 2.296875 0 C 2.128906 0 1.988281 -0.0546875 1.875 -0.171875 C 1.757812 -0.296875 1.703125 -0.4375 1.703125 -0.59375 L 1.703125 -14.203125 C 1.703125 -14.359375 1.757812 -14.492188 1.875 -14.609375 C 2 -14.734375 2.140625 -14.796875 2.296875 -14.796875 C 2.472656 -14.796875 2.617188 -14.734375 2.734375 -14.609375 C 2.847656 -14.492188 2.90625 -14.359375 2.90625 -14.203125 Z M 2.90625 -0.59375 "/></g></g></g><g fill="#076e6d" fill-opacity="1"><g transform="translate(232.227568, 344.624999)"><g><path d="M 11.09375 -5.125 C 11.09375 -4.101562 10.875 -3.191406 10.4375 -2.390625 C 10 -1.585938 9.398438 -0.953125 8.640625 -0.484375 C 7.878906 -0.0234375 7.015625 0.203125 6.046875 0.203125 C 5.097656 0.203125 4.238281 -0.0234375 3.46875 -0.484375 C 2.695312 -0.953125 2.085938 -1.585938 1.640625 -2.390625 C 1.203125 -3.191406 0.984375 -4.101562 0.984375 -5.125 C 0.984375 -6.144531 1.203125 -7.054688 1.640625 -7.859375 C 2.085938 -8.660156 2.695312 -9.289062 3.46875 -9.75 C 4.238281 -10.21875 5.097656 -10.453125 6.046875 -10.453125 C 7.015625 -10.453125 7.878906 -10.21875 8.640625 -9.75 C 9.398438 -9.289062 10 -8.660156 10.4375 -7.859375 C 10.875 -7.054688 11.09375 -6.144531 11.09375 -5.125 Z M 9.90625 -5.125 C 9.90625 -5.9375 9.738281 -6.65625 9.40625 -7.28125 C 9.070312 -7.914062 8.613281 -8.414062 8.03125 -8.78125 C 7.445312 -9.15625 6.785156 -9.34375 6.046875 -9.34375 C 5.316406 -9.34375 4.660156 -9.15625 4.078125 -8.78125 C 3.492188 -8.414062 3.03125 -7.914062 2.6875 -7.28125 C 2.351562 -6.65625 2.1875 -5.9375 2.1875 -5.125 C 2.1875 -4.3125 2.351562 -3.585938 2.6875 -2.953125 C 3.03125 -2.328125 3.492188 -1.832031 4.078125 -1.46875 C 4.660156 -1.101562 5.316406 -0.921875 6.046875 -0.921875 C 6.785156 -0.921875 7.445312 -1.101562 8.03125 -1.46875 C 8.613281 -1.832031 9.070312 -2.328125 9.40625 -2.953125 C 9.738281 -3.585938 9.90625 -4.3125 9.90625 -5.125 Z M 9.90625 -5.125 "/></g></g></g><g fill="#076e6d" fill-opacity="1"><g transform="translate(244.302797, 344.624999)"><g><path d="M 5.84375 -10.453125 C 6.4375 -10.453125 6.988281 -10.347656 7.5 -10.140625 C 8.007812 -9.941406 8.453125 -9.675781 8.828125 -9.34375 C 9.210938 -9.019531 9.507812 -8.675781 9.71875 -8.3125 C 9.9375 -7.945312 10.046875 -7.597656 10.046875 -7.265625 L 9.703125 -7.734375 L 9.703125 -9.59375 C 9.703125 -9.769531 9.757812 -9.914062 9.875 -10.03125 C 9.988281 -10.15625 10.128906 -10.21875 10.296875 -10.21875 C 10.484375 -10.21875 10.628906 -10.15625 10.734375 -10.03125 C 10.847656 -9.914062 10.90625 -9.769531 10.90625 -9.59375 L 10.90625 -0.9375 C 10.90625 0.125 10.679688 1.019531 10.234375 1.75 C 9.796875 2.488281 9.195312 3.046875 8.4375 3.421875 C 7.6875 3.804688 6.832031 4 5.875 4 C 5.414062 4 4.925781 3.9375 4.40625 3.8125 C 3.894531 3.695312 3.457031 3.546875 3.09375 3.359375 C 2.726562 3.171875 2.523438 2.976562 2.484375 2.78125 C 2.367188 2.65625 2.316406 2.535156 2.328125 2.421875 C 2.335938 2.316406 2.394531 2.222656 2.5 2.140625 C 2.632812 2.046875 2.773438 2.035156 2.921875 2.109375 C 3.066406 2.179688 3.285156 2.28125 3.578125 2.40625 C 3.710938 2.4375 3.890625 2.492188 4.109375 2.578125 C 4.335938 2.660156 4.609375 2.726562 4.921875 2.78125 C 5.242188 2.84375 5.578125 2.875 5.921875 2.875 C 7.117188 2.875 8.046875 2.53125 8.703125 1.84375 C 9.367188 1.15625 9.703125 0.253906 9.703125 -0.859375 L 9.703125 -2.78125 L 9.921875 -2.71875 C 9.796875 -2.238281 9.597656 -1.816406 9.328125 -1.453125 C 9.054688 -1.097656 8.734375 -0.796875 8.359375 -0.546875 C 7.984375 -0.304688 7.578125 -0.125 7.140625 0 C 6.710938 0.132812 6.285156 0.203125 5.859375 0.203125 C 4.941406 0.203125 4.113281 -0.03125 3.375 -0.5 C 2.644531 -0.96875 2.0625 -1.597656 1.625 -2.390625 C 1.195312 -3.191406 0.984375 -4.109375 0.984375 -5.140625 C 0.984375 -6.148438 1.195312 -7.054688 1.625 -7.859375 C 2.0625 -8.671875 2.640625 -9.304688 3.359375 -9.765625 C 4.085938 -10.222656 4.914062 -10.453125 5.84375 -10.453125 Z M 5.984375 -9.34375 C 5.242188 -9.34375 4.582031 -9.15625 4 -8.78125 C 3.425781 -8.414062 2.972656 -7.914062 2.640625 -7.28125 C 2.316406 -6.65625 2.15625 -5.941406 2.15625 -5.140625 C 2.15625 -4.335938 2.316406 -3.613281 2.640625 -2.96875 C 2.972656 -2.332031 3.425781 -1.832031 4 -1.46875 C 4.582031 -1.101562 5.242188 -0.921875 5.984375 -0.921875 C 6.710938 -0.921875 7.363281 -1.097656 7.9375 -1.453125 C 8.507812 -1.816406 8.960938 -2.316406 9.296875 -2.953125 C 9.628906 -3.585938 9.796875 -4.316406 9.796875 -5.140625 C 9.796875 -5.960938 9.628906 -6.691406 9.296875 -7.328125 C 8.960938 -7.960938 8.507812 -8.457031 7.9375 -8.8125 C 7.363281 -9.164062 6.710938 -9.34375 5.984375 -9.34375 Z M 5.984375 -9.34375 "/></g></g></g><g fill="#076e6d" fill-opacity="1"><g transform="translate(256.777871, 344.624999)"><g><path d="M 2.734375 -0.59375 C 2.734375 -0.4375 2.671875 -0.296875 2.546875 -0.171875 C 2.429688 -0.0546875 2.296875 0 2.140625 0 C 1.960938 0 1.816406 -0.0546875 1.703125 -0.171875 C 1.597656 -0.296875 1.546875 -0.4375 1.546875 -0.59375 L 1.546875 -9.796875 C 1.546875 -9.960938 1.597656 -10.101562 1.703125 -10.21875 C 1.816406 -10.34375 1.960938 -10.40625 2.140625 -10.40625 C 2.316406 -10.40625 2.457031 -10.34375 2.5625 -10.21875 C 2.675781 -10.101562 2.734375 -9.960938 2.734375 -9.796875 Z M 2.140625 -11.75 C 1.859375 -11.75 1.644531 -11.8125 1.5 -11.9375 C 1.363281 -12.0625 1.296875 -12.242188 1.296875 -12.484375 L 1.296875 -12.6875 C 1.296875 -12.925781 1.367188 -13.109375 1.515625 -13.234375 C 1.671875 -13.359375 1.882812 -13.421875 2.15625 -13.421875 C 2.40625 -13.421875 2.597656 -13.359375 2.734375 -13.234375 C 2.878906 -13.109375 2.953125 -12.925781 2.953125 -12.6875 L 2.953125 -12.484375 C 2.953125 -12.242188 2.878906 -12.0625 2.734375 -11.9375 C 2.597656 -11.8125 2.398438 -11.75 2.140625 -11.75 Z M 2.140625 -11.75 "/></g></g></g><g fill="#076e6d" fill-opacity="1"><g transform="translate(261.056185, 344.624999)"><g><path d="M 1 -1.625 C 0.894531 -1.78125 0.84375 -1.929688 0.84375 -2.078125 C 0.851562 -2.234375 0.9375 -2.359375 1.09375 -2.453125 C 1.207031 -2.546875 1.332031 -2.585938 1.46875 -2.578125 C 1.613281 -2.566406 1.742188 -2.5 1.859375 -2.375 C 2.222656 -1.914062 2.660156 -1.539062 3.171875 -1.25 C 3.679688 -0.957031 4.289062 -0.8125 5 -0.8125 C 5.375 -0.8125 5.742188 -0.875 6.109375 -1 C 6.472656 -1.132812 6.773438 -1.332031 7.015625 -1.59375 C 7.253906 -1.851562 7.375 -2.179688 7.375 -2.578125 C 7.375 -2.992188 7.253906 -3.328125 7.015625 -3.578125 C 6.773438 -3.828125 6.460938 -4.023438 6.078125 -4.171875 C 5.703125 -4.328125 5.300781 -4.457031 4.875 -4.5625 C 4.425781 -4.675781 3.988281 -4.8125 3.5625 -4.96875 C 3.132812 -5.125 2.753906 -5.316406 2.421875 -5.546875 C 2.097656 -5.785156 1.835938 -6.070312 1.640625 -6.40625 C 1.441406 -6.738281 1.34375 -7.144531 1.34375 -7.625 C 1.34375 -8.175781 1.492188 -8.664062 1.796875 -9.09375 C 2.109375 -9.519531 2.523438 -9.851562 3.046875 -10.09375 C 3.578125 -10.332031 4.175781 -10.453125 4.84375 -10.453125 C 5.175781 -10.453125 5.535156 -10.410156 5.921875 -10.328125 C 6.304688 -10.242188 6.6875 -10.097656 7.0625 -9.890625 C 7.4375 -9.691406 7.769531 -9.421875 8.0625 -9.078125 C 8.175781 -8.960938 8.234375 -8.828125 8.234375 -8.671875 C 8.234375 -8.515625 8.171875 -8.378906 8.046875 -8.265625 C 7.929688 -8.179688 7.800781 -8.140625 7.65625 -8.140625 C 7.519531 -8.140625 7.40625 -8.191406 7.3125 -8.296875 C 7 -8.660156 6.617188 -8.9375 6.171875 -9.125 C 5.734375 -9.3125 5.265625 -9.40625 4.765625 -9.40625 C 4.378906 -9.40625 4.015625 -9.335938 3.671875 -9.203125 C 3.328125 -9.078125 3.039062 -8.890625 2.8125 -8.640625 C 2.59375 -8.390625 2.484375 -8.054688 2.484375 -7.640625 C 2.503906 -7.253906 2.640625 -6.941406 2.890625 -6.703125 C 3.140625 -6.460938 3.46875 -6.257812 3.875 -6.09375 C 4.28125 -5.9375 4.734375 -5.789062 5.234375 -5.65625 C 5.660156 -5.550781 6.070312 -5.425781 6.46875 -5.28125 C 6.863281 -5.132812 7.207031 -4.953125 7.5 -4.734375 C 7.800781 -4.515625 8.039062 -4.238281 8.21875 -3.90625 C 8.40625 -3.570312 8.5 -3.148438 8.5 -2.640625 C 8.5 -2.054688 8.332031 -1.550781 8 -1.125 C 7.675781 -0.695312 7.238281 -0.367188 6.6875 -0.140625 C 6.144531 0.0859375 5.539062 0.203125 4.875 0.203125 C 4.15625 0.203125 3.457031 0.0625 2.78125 -0.21875 C 2.113281 -0.5 1.519531 -0.96875 1 -1.625 Z M 1 -1.625 "/></g></g></g><g fill="#076e6d" fill-opacity="1"><g transform="translate(270.432486, 344.624999)"><g><path d="M 0.921875 -10.1875 L 5.578125 -10.1875 C 5.734375 -10.1875 5.863281 -10.128906 5.96875 -10.015625 C 6.082031 -9.898438 6.140625 -9.757812 6.140625 -9.59375 C 6.140625 -9.445312 6.082031 -9.320312 5.96875 -9.21875 C 5.863281 -9.113281 5.734375 -9.0625 5.578125 -9.0625 L 0.921875 -9.0625 C 0.765625 -9.0625 0.628906 -9.117188 0.515625 -9.234375 C 0.398438 -9.347656 0.34375 -9.476562 0.34375 -9.625 C 0.34375 -9.78125 0.398438 -9.910156 0.515625 -10.015625 C 0.628906 -10.128906 0.765625 -10.1875 0.921875 -10.1875 Z M 2.984375 -13 C 3.148438 -13 3.289062 -12.9375 3.40625 -12.8125 C 3.519531 -12.695312 3.578125 -12.5625 3.578125 -12.40625 L 3.578125 -2.359375 C 3.578125 -1.984375 3.625 -1.703125 3.71875 -1.515625 C 3.820312 -1.328125 3.953125 -1.203125 4.109375 -1.140625 C 4.273438 -1.085938 4.4375 -1.0625 4.59375 -1.0625 C 4.707031 -1.0625 4.804688 -1.078125 4.890625 -1.109375 C 4.972656 -1.140625 5.070312 -1.15625 5.1875 -1.15625 C 5.300781 -1.15625 5.398438 -1.109375 5.484375 -1.015625 C 5.578125 -0.921875 5.625 -0.800781 5.625 -0.65625 C 5.625 -0.46875 5.515625 -0.3125 5.296875 -0.1875 C 5.085938 -0.0625 4.835938 0 4.546875 0 C 4.421875 0 4.238281 -0.0078125 4 -0.03125 C 3.757812 -0.0507812 3.507812 -0.125 3.25 -0.25 C 3 -0.375 2.789062 -0.597656 2.625 -0.921875 C 2.457031 -1.242188 2.375 -1.703125 2.375 -2.296875 L 2.375 -12.40625 C 2.375 -12.5625 2.429688 -12.695312 2.546875 -12.8125 C 2.660156 -12.9375 2.804688 -13 2.984375 -13 Z M 2.984375 -13 "/></g></g></g><g fill="#076e6d" fill-opacity="1"><g transform="translate(120.259106, 309.442422)"><g><path d="M 11 0.484375 C 7.90625 0.484375 5.601562 -0.332031 4.09375 -1.96875 C 2.59375 -3.613281 1.789062 -6.222656 1.6875 -9.796875 L 7.796875 -10.71875 C 7.828125 -8.664062 8.070312 -7.191406 8.53125 -6.296875 C 9 -5.398438 9.703125 -4.953125 10.640625 -4.953125 C 11.835938 -4.953125 12.4375 -5.738281 12.4375 -7.3125 C 12.4375 -8.570312 12.148438 -9.65625 11.578125 -10.5625 C 11.003906 -11.46875 10.101562 -12.441406 8.875 -13.484375 L 6.078125 -15.921875 C 4.691406 -17.097656 3.617188 -18.34375 2.859375 -19.65625 C 2.097656 -20.976562 1.71875 -22.546875 1.71875 -24.359375 C 1.71875 -27.078125 2.523438 -29.171875 4.140625 -30.640625 C 5.753906 -32.109375 7.972656 -32.84375 10.796875 -32.84375 C 13.867188 -32.84375 15.957031 -31.945312 17.0625 -30.15625 C 18.164062 -28.375 18.757812 -26.203125 18.84375 -23.640625 L 12.6875 -22.875 C 12.625 -24.5625 12.46875 -25.769531 12.21875 -26.5 C 11.96875 -27.226562 11.414062 -27.59375 10.5625 -27.59375 C 9.945312 -27.59375 9.472656 -27.332031 9.140625 -26.8125 C 8.804688 -26.300781 8.640625 -25.722656 8.640625 -25.078125 C 8.640625 -23.984375 8.882812 -23.0625 9.375 -22.3125 C 9.875 -21.570312 10.671875 -20.722656 11.765625 -19.765625 L 14.4375 -17.40625 C 16.039062 -16.039062 17.28125 -14.597656 18.15625 -13.078125 C 19.039062 -11.554688 19.484375 -9.757812 19.484375 -7.6875 C 19.484375 -6.164062 19.128906 -4.785156 18.421875 -3.546875 C 17.710938 -2.304688 16.71875 -1.320312 15.4375 -0.59375 C 14.15625 0.125 12.675781 0.484375 11 0.484375 Z M 11 0.484375 "/></g></g></g><g fill="#076e6d" fill-opacity="1"><g transform="translate(140.817065, 309.442422)"><g><path d="M 2.4375 -32.40625 L 9.59375 -32.40625 L 9.59375 0 L 2.4375 0 Z M 2.4375 -32.40625 "/></g></g></g><g fill="#076e6d" fill-opacity="1"><g transform="translate(152.855871, 309.442422)"><g><path d="M 2.5625 -16.125 L 12.921875 -16.125 L 12.921875 -11.953125 L 2.5625 -11.953125 Z M 2.5625 -16.125 "/></g></g></g><g fill="#076e6d" fill-opacity="1"><g transform="translate(168.294339, 309.442422)"><g><path d="M 11.6875 0.484375 C 8.164062 0.484375 5.660156 -0.441406 4.171875 -2.296875 C 2.691406 -4.148438 1.953125 -6.820312 1.953125 -10.3125 L 1.953125 -22 C 1.953125 -25.570312 2.6875 -28.269531 4.15625 -30.09375 C 5.625 -31.925781 8.132812 -32.84375 11.6875 -32.84375 C 15.070312 -32.84375 17.46875 -32.023438 18.875 -30.390625 C 20.289062 -28.765625 21 -26.460938 21 -23.484375 L 21 -20.6875 L 14 -20.6875 L 14 -23.921875 C 14 -25.171875 13.863281 -26.128906 13.59375 -26.796875 C 13.332031 -27.460938 12.695312 -27.796875 11.6875 -27.796875 C 10.664062 -27.796875 9.992188 -27.441406 9.671875 -26.734375 C 9.359375 -26.035156 9.203125 -25.054688 9.203125 -23.796875 L 9.203125 -8.5625 C 9.203125 -7.28125 9.367188 -6.296875 9.703125 -5.609375 C 10.035156 -4.929688 10.695312 -4.59375 11.6875 -4.59375 C 12.664062 -4.59375 13.296875 -4.929688 13.578125 -5.609375 C 13.859375 -6.296875 14 -7.28125 14 -8.5625 L 14 -11.953125 L 21 -11.953125 L 21 -9.15625 C 21 -6.113281 20.289062 -3.742188 18.875 -2.046875 C 17.46875 -0.359375 15.070312 0.484375 11.6875 0.484375 Z M 11.6875 0.484375 "/></g></g></g><g fill="#076e6d" fill-opacity="1"><g transform="translate(190.812099, 309.442422)"><g><path d="M 6.953125 -32.40625 L 15.125 -32.40625 L 21.15625 0 L 14.5625 0 L 13.484375 -6.84375 L 8.71875 -6.84375 L 7.59375 0 L 0.84375 0 Z M 12.796875 -11.125 L 11.078125 -23.765625 L 9.359375 -11.125 Z M 12.796875 -11.125 "/></g></g></g><g fill="#076e6d" fill-opacity="1"><g transform="translate(212.849905, 309.442422)"><g><path d="M 2.40625 -32.40625 L 11.3125 -32.40625 C 14.863281 -32.40625 17.546875 -31.773438 19.359375 -30.515625 C 21.171875 -29.265625 22.078125 -27.039062 22.078125 -23.84375 C 22.078125 -21.675781 21.796875 -19.953125 21.234375 -18.671875 C 20.679688 -17.398438 19.644531 -16.40625 18.125 -15.6875 L 22.5625 0 L 15.15625 0 L 11.59375 -14.515625 L 9.5625 -14.515625 L 9.5625 0 L 2.40625 0 Z M 11.5625 -18.640625 C 13 -18.640625 14.003906 -19.019531 14.578125 -19.78125 C 15.148438 -20.539062 15.4375 -21.679688 15.4375 -23.203125 C 15.4375 -24.671875 15.171875 -25.769531 14.640625 -26.5 C 14.109375 -27.226562 13.1875 -27.59375 11.875 -27.59375 L 9.5625 -27.59375 L 9.5625 -18.640625 Z M 11.5625 -18.640625 "/></g></g></g><g fill="#076e6d" fill-opacity="1"><g transform="translate(236.847523, 309.442422)"><g><path d="M 2.40625 -32.40625 L 16.953125 -32.40625 L 16.953125 -27.515625 L 9.5625 -27.515625 L 9.5625 -19.484375 L 15.203125 -19.484375 L 15.203125 -14.515625 L 9.5625 -14.515625 L 9.5625 -4.84375 L 17.046875 -4.84375 L 17.046875 0 L 2.40625 0 Z M 2.40625 -32.40625 "/></g></g></g></svg>